PathFileType	4	(X/Y/Z)	/Users/itak/Documents/Research/Walk-IL/dataset/trc/00538_00009.trc
DataRate	CameraRate	NumFrames	NumMarkers	Units	OrigDataRate	OrigDataStartFrame	OrigNumFrames
100.000000	100.000000	4	55	mm	100.000000	591	676
Frame#	Time	RPSI			LPSI			L3			STRN			T10			C7			CLAV			RBAK			LBAK			LSHO			LUPA			LAEL			LAOL			LWTS			LWPS			LFRA			LIFD			LHPS			LHTS			RSHO			RUPA			RAEL			RAOL			RWTS			RWPS			RFRA			RIFD			RHTS			RHPS			RBHD			LFHD			RFHD			LBHD			LHIP			RHIP			RASI			LASI			LKNE			LTHI			LANK			LTIP			LTOE			LMT1			LMT5			LHEE			RKNE			RTHI			RANK			RTIP			RTOE			RMT5			RHEE			RMT1			*53			*54			
		X1	Y1	Z1	X2	Y2	Z2	X3	Y3	Z3	X4	Y4	Z4	X5	Y5	Z5	X6	Y6	Z6	X7	Y7	Z7	X8	Y8	Z8	X9	Y9	Z9	X10	Y10	Z10	X11	Y11	Z11	X12	Y12	Z12	X13	Y13	Z13	X14	Y14	Z14	X15	Y15	Z15	X16	Y16	Z16	X17	Y17	Z17	X18	Y18	Z18	X19	Y19	Z19	X20	Y20	Z20	X21	Y21	Z21	X22	Y22	Z22	X23	Y23	Z23	X24	Y24	Z24	X25	Y25	Z25	X26	Y26	Z26	X27	Y27	Z27	X28	Y28	Z28	X29	Y29	Z29	X30	Y30	Z30	X31	Y31	Z31	X32	Y32	Z32	X33	Y33	Z33	X34	Y34	Z34	X35	Y35	Z35	X36	Y36	Z36	X37	Y37	Z37	X38	Y38	Z38	X39	Y39	Z39	X40	Y40	Z40	X41	Y41	Z41	X42	Y42	Z42	X43	Y43	Z43	X44	Y44	Z44	X45	Y45	Z45	X46	Y46	Z46	X47	Y47	Z47	X48	Y48	Z48	X49	Y49	Z49	X50	Y50	Z50	X51	Y51	Z51	X52	Y52	Z52	X53	Y53	Z53	X54	Y54	Z54	X55	Y55	Z55	

592	5.91	1213.868530273438	1020.6943359375	451.2205200195312	1221.451049804688	1021.254333496094	317.4424438476562	1221.68505859375	1117.417724609375	377.5599975585938	1457.944091796875	1296.347290039062	376.6384582519531	1212.752563476562	1242.4521484375	372.4287414550781	1271.016845703125	1513.846923828125	382.4921569824219	1442.070678710938	1407.530151367188	376.4616088867188	1194.96533203125	1394.239990234375	470.9074401855469	1238.6455078125	1461.68115234375	287.4923706054688	1341.99462890625	1480.721557617188	210.6567687988281	1339.615356445312	1354.174682617188	130.5202789306641	1372.339233398438	1131.702514648438	114.2298278808594	1279.375366210938	1120.983276367188	153.9795837402344	1469.255249023438	894.389404296875	175.6898193359375	1432.854858398438	868.0317993164062	100.7754974365234	1399.102294921875	1046.35400390625	111.9386672973633	1476.811645507812	723.9473876953125	173.4946441650391	1444.0400390625	808.851806640625	110.8337631225586	1490.917724609375	818.0982055664062	159.1180267333984	1330.418701171875	1474.486328125	539.1976318359375	1310.225341796875	1410.943969726562	606.8492431640625	1295.38818359375	1122.9765625	658.0966186523438	1239.923706054688	1105.810424804688	630.7723999023438	1432.723876953125	905.358642578125	625.2823486328125	1386.584594726562	884.5953979492188	689.9906616210938	1304.894653320312	1067.469848632812	666.8045043945312	1448.398803710938	732.3875122070312	630.0360107421875	1463.057006835938	814.6697998046875	641.7581787109375	1406.43359375	811.3441772460938	690.2420654296875	1362.644409179688	1694.036865234375	446.5281982421875	1525.376831054688	1698.63330078125	316.6128845214844	1502.253051757812	1700.91162109375	460.0901184082031	1395.404541015625	1688.803100585938	284.8914794921875	1350.300537109375	937.7192993164062	192.2088928222656	1330.9306640625	950.988525390625	580.2301635742188	1422.86181640625	980.9013061523438	524.9187622070312	1427.8271484375	962.9913330078125	249.2775573730469	1374.067993164062	494.9564819335938	276.3534240722656	1377.589965820312	659.2962646484375	235.1556549072266	1279.931274414062	33.06881332397461	306.1340026855469	1306.044799804688	250.0832366943359	283.5486450195312	1487.00048828125	38.50901794433594	380.1824645996094	1412.15380859375	45.89634704589844	408.3858337402344	1402.325073242188	34.1523551940918	299.4657897949219	1209.4453125	40.91998672485352	355.5632019042969	1404.346923828125	508.8755493164062	549.9692993164062	1387.581665039062	798.7322998046875	581.0440063476562	1281.493896484375	45.4555778503418	541.1751098632812	1396.919677734375	362.4801635742188	542.2662963867188	1499.962890625	49.18772506713867	509.7591552734375	1410.618896484375	43.90290451049805	566.1146850585938	1228.739135742188	41.35888671875	483.2911987304688	1438.536010742188	47.26989364624023	466.1321105957031	nan	nan	nan	nan	nan	nan	
593	5.92	1215.871337890625	1020.403015136719	452.15673828125	1223.163696289062	1021.063537597656	318.3867797851562	1223.340698242188	1117.099975585938	378.5431823730469	1459.441284179688	1296.200073242188	377.1101989746094	1214.235107421875	1242.134765625	373.413330078125	1272.474853515625	1513.685546875	383.0350341796875	1443.505859375	1407.348999023438	376.8516235351562	1196.560546875	1394.059326171875	471.6306762695312	1239.92822265625	1461.449584960938	288.1103210449219	1343.190673828125	1480.350341796875	211.1224670410156	1340.570434570312	1353.694091796875	131.1367492675781	1372.855712890625	1131.097534179688	115.0749893188477	1279.909423828125	1120.707641601562	154.9328460693359	1468.63671875	893.2005615234375	176.3768768310547	1432.114868164062	867.124755859375	101.4081115722656	1399.283935546875	1045.618774414062	112.6977005004883	1475.159790039062	722.7088012695312	173.9876098632812	1442.91357421875	807.8659057617188	111.4281463623047	1489.81103515625	816.7650146484375	159.7751770019531	1332.0615234375	1474.390014648438	539.763671875	1311.873901367188	1410.832275390625	607.4262084960938	1296.83154296875	1122.880981445312	658.809326171875	1241.331909179688	1105.840698242188	631.4798583984375	1433.333129882812	904.6766967773438	626.1896362304688	1387.16259765625	884.2003784179688	690.9127197265625	1306.180297851562	1067.358642578125	667.5477905273438	1448.33349609375	731.6918334960938	631.1270751953125	1463.315795898438	813.9132080078125	642.74560546875	1406.760620117188	810.8882446289062	691.2625732421875	1364.358032226562	1693.98486328125	446.7450561523438	1526.94189453125	1698.271484375	316.6429443359375	1503.99365234375	1700.712646484375	460.1759033203125	1396.920654296875	1688.5634765625	285.0946350097656	1351.981567382812	937.861572265625	192.8814239501953	1333.73876953125	950.6487426757812	580.6442260742188	1425.0009765625	980.647705078125	525.2882080078125	1429.47119140625	962.9271850585938	249.6124572753906	1375.008911132812	494.8760070800781	276.7677307128906	1378.813842773438	659.2490844726562	235.5251159667969	1279.92822265625	33.15347671508789	306.2457275390625	1306.487670898438	250.17529296875	283.7348022460938	1487.0224609375	38.51528549194336	380.1744384765625	1412.167236328125	45.86508560180664	408.4000549316406	1402.315551757812	34.15931701660156	299.49169921875	1209.457763671875	41.03792953491211	355.6473999023438	1405.7744140625	508.4470825195312	549.8998413085938	1390.242797851562	798.2938232421875	581.170654296875	1281.95751953125	45.82854843139648	540.9951171875	1398.112915039062	362.1585388183594	542.0608520507812	1500.944946289062	46.63324737548828	509.9187622070312	1411.27734375	43.20163726806641	566.3659057617188	1229.026123046875	41.9481086730957	483.0887451171875	1439.2763671875	45.92417526245117	466.3381958007812	nan	nan	nan	nan	nan	nan	
594	5.93	1217.854614257812	1020.145202636719	453.1067199707031	1224.881713867188	1020.900939941406	319.3604125976562	1225.006225585938	1116.763793945312	379.534912109375	1460.906372070312	1296.084716796875	377.609130859375	1215.698852539062	1241.823608398438	374.4274291992188	1273.881469726562	1513.540649414062	383.6249084472656	1444.89501953125	1407.192504882812	377.2568969726562	1198.124389648438	1393.875	472.4115600585938	1241.162719726562	1461.175537109375	288.8593444824219	1344.293212890625	1479.998657226562	211.6269378662109	1341.407836914062	1353.242309570312	131.7832946777344	1373.271850585938	1130.527099609375	115.9513092041016	1280.37646484375	1120.445678710938	155.9435272216797	1467.994384765625	892.069580078125	177.0476684570312	1431.336669921875	866.2758178710938	102.0271072387695	1399.389892578125	1044.927368164062	113.4775238037109	1473.537353515625	721.5405883789062	174.4235687255859	1441.766967773438	806.94580078125	111.9946899414062	1488.699584960938	815.5016479492188	160.3925018310547	1333.664184570312	1474.29541015625	540.3757934570312	1313.500244140625	1410.725463867188	608.047607421875	1298.289306640625	1122.779052734375	659.55322265625	1242.76171875	1105.864379882812	632.2394409179688	1433.964477539062	904.0067749023438	627.1284790039062	1387.7783203125	883.8182373046875	691.8715209960938	1307.488891601562	1067.24658203125	668.3206787109375	1448.30810546875	731.0065307617188	632.2676391601562	1463.61474609375	813.178955078125	643.7688598632812	1407.12255859375	810.4423828125	692.3168334960938	1366.030395507812	1693.9658203125	447.0060729980469	1528.449340820312	1697.917358398438	316.6942443847656	1505.703491210938	1700.543212890625	460.2935791015625	1398.36962890625	1688.34814453125	285.3459167480469	1353.614501953125	937.944580078125	193.57666015625	1336.987182617188	950.3126220703125	580.8982543945312	1427.119262695312	980.4092407226562	525.6984252929688	1431.131958007812	962.8812255859375	249.9889068603516	1375.960693359375	494.8134460449219	277.1762390136719	1380.04833984375	659.1997680664062	235.9148559570312	1279.930297851562	33.24884796142578	306.3629150390625	1306.927490234375	250.2701873779297	283.9269104003906	1487.042602539062	38.52640533447266	380.1668090820312	1412.179077148438	45.83292770385742	408.4164733886719	1402.30810546875	34.16954040527344	299.5187683105469	1209.480346679688	41.1561279296875	355.7267761230469	1406.93896484375	508.0090942382812	549.8234252929688	1392.62890625	797.8716430664062	581.4038696289062	1282.221435546875	46.14365386962891	540.7791748046875	1399.040283203125	361.8304443359375	541.82275390625	1501.659545898438	44.60095596313477	510.040771484375	1411.739990234375	42.6408576965332	566.5716552734375	1229.19091796875	42.39926147460938	482.8226928710938	1439.81005859375	44.85246276855469	466.4927978515625	nan	nan	nan	nan	nan	nan	
595	5.94	1219.805908203125	1019.938537597656	454.0554504394531	1226.608032226562	1020.776000976562	320.3421325683594	1226.681274414062	1116.428466796875	380.5190124511719	1462.34375	1296.006958007812	378.1347045898438	1217.1552734375	1241.535278320312	375.4467163085938	1275.243530273438	1513.417846679688	384.2584533691406	1446.244995117188	1407.070922851562	377.6776428222656	1199.659790039062	1393.692260742188	473.2428588867188	1242.363037109375	1460.86328125	289.7386474609375	1345.312133789062	1479.677978515625	212.1696166992188	1342.132568359375	1352.828491210938	132.4622039794922	1373.579467773438	1130.001342773438	116.8571090698242	1280.776977539062	1120.21240234375	157.0220336914062	1467.337280273438	891.0123291015625	177.6898651123047	1430.510009765625	865.494873046875	102.6360397338867	1399.408813476562	1044.291015625	114.2813873291016	1471.94970703125	720.4561767578125	174.8184814453125	1440.59716796875	806.1022338867188	112.5380172729492	1487.593017578125	814.3270874023438	160.9559326171875	1335.226318359375	1474.208862304688	541.0286865234375	1315.10888671875	1410.63623046875	608.7122192382812	1299.768676757812	1122.68408203125	660.3251953125	1244.218139648438	1105.8955078125	633.046875	1434.625244140625	903.3583984375	628.0868530273438	1388.43798828125	883.4588012695312	692.8656005859375	1308.824340820312	1067.143432617188	669.1206665039062	1448.321166992188	730.3326416015625	633.4497680664062	1463.96044921875	812.4734497070312	644.8052368164062	1407.51513671875	810.0153198242188	693.4093627929688	1367.658325195312	1693.984497070312	447.31787109375	1529.893310546875	1697.584594726562	316.7689819335938	1507.374633789062	1700.414916992188	460.4378662109375	1399.747314453125	1688.165771484375	285.6443481445312	1355.193115234375	937.9735717773438	194.2913513183594	1340.489501953125	949.9859619140625	581.0492553710938	1429.203369140625	980.1962280273438	526.1549072265625	1432.8076171875	962.8544921875	250.4190216064453	1376.924438476562	494.7680358886719	277.5820922851562	1381.282592773438	659.1437377929688	236.3336181640625	1279.938354492188	33.35620498657227	306.4823913574219	1307.366455078125	250.3665771484375	284.1245422363281	1487.0615234375	38.54269409179688	380.1592407226562	1412.190063476562	45.80368804931641	408.4345397949219	1402.30322265625	34.18285751342773	299.5480346679688	1209.512817382812	41.27166748046875	355.8004760742188	1407.834106445312	507.583984375	549.7489013671875	1394.7333984375	797.4844360351562	581.734130859375	1282.348754882812	46.3879280090332	540.516357421875	1399.713134765625	361.507568359375	541.563232421875	1502.156494140625	43.099853515625	510.1134338378906	1412.048095703125	42.21509552001953	566.704833984375	1229.310424804688	42.70306015014648	482.4902038574219	1440.189453125	44.04425811767578	466.5794677734375	nan	nan	nan	nan	nan	nan	
